<svg width="686" height="477" viewBox="0 0 686 477" fill="none" xmlns="http://www.w3.org/2000/svg">
<g filter="url(#filter0_d_8_380)">
<rect x="0.296875" width="677.404" height="469" rx="16" fill="#D9D9D9"/>
</g>
<path d="M255.241 236.84C254.977 236.84 254.773 236.768 254.629 236.624C254.485 236.456 254.413 236.252 254.413 236.012V212.468C254.413 212.228 254.485 212.036 254.629 211.892C254.773 211.724 254.977 211.64 255.241 211.64H257.149C257.389 211.64 257.581 211.724 257.725 211.892C257.893 212.036 257.977 212.228 257.977 212.468V236.012C257.977 236.252 257.893 236.456 257.725 236.624C257.581 236.768 257.389 236.84 257.149 236.84H255.241ZM265.085 236.84C264.845 236.84 264.641 236.768 264.473 236.624C264.329 236.456 264.257 236.252 264.257 236.012V212.504C264.257 212.24 264.329 212.036 264.473 211.892C264.641 211.724 264.845 211.64 265.085 211.64H266.885C267.173 211.64 267.389 211.712 267.533 211.856C267.677 212 267.761 212.12 267.785 212.216L275.417 226.76L283.085 212.216C283.133 212.12 283.217 212 283.337 211.856C283.481 211.712 283.697 211.64 283.985 211.64H285.749C286.013 211.64 286.217 211.724 286.361 211.892C286.529 212.036 286.613 212.24 286.613 212.504V236.012C286.613 236.252 286.529 236.456 286.361 236.624C286.217 236.768 286.013 236.84 285.749 236.84H283.985C283.745 236.84 283.541 236.768 283.373 236.624C283.229 236.456 283.157 236.252 283.157 236.012V218.3L277.145 230.036C277.049 230.276 276.905 230.468 276.713 230.612C276.521 230.732 276.281 230.792 275.993 230.792H274.877C274.565 230.792 274.313 230.732 274.121 230.612C273.953 230.468 273.809 230.276 273.689 230.036L267.677 218.3V236.012C267.677 236.252 267.593 236.456 267.425 236.624C267.281 236.768 267.089 236.84 266.849 236.84H265.085ZM291.147 236.84C290.955 236.84 290.787 236.768 290.643 236.624C290.499 236.48 290.427 236.312 290.427 236.12C290.427 236 290.439 235.868 290.463 235.724L299.391 212.432C299.487 212.192 299.619 212 299.787 211.856C299.955 211.712 300.207 211.64 300.543 211.64H302.991C303.303 211.64 303.543 211.712 303.711 211.856C303.903 212 304.047 212.192 304.143 212.432L313.035 235.724C313.083 235.868 313.107 236 313.107 236.12C313.107 236.312 313.035 236.48 312.891 236.624C312.747 236.768 312.579 236.84 312.387 236.84H310.551C310.263 236.84 310.047 236.768 309.903 236.624C309.783 236.48 309.699 236.348 309.651 236.228L307.671 231.116H295.863L293.883 236.228C293.859 236.348 293.775 236.48 293.631 236.624C293.487 236.768 293.271 236.84 292.983 236.84H291.147ZM296.907 228.02H306.627L301.767 215.24L296.907 228.02ZM325.643 237.2C323.531 237.2 321.731 236.804 320.243 236.012C318.779 235.22 317.651 234.104 316.859 232.664C316.091 231.224 315.659 229.532 315.563 227.588C315.539 226.532 315.527 225.416 315.527 224.24C315.527 223.04 315.539 221.9 315.563 220.82C315.659 218.876 316.091 217.196 316.859 215.78C317.651 214.364 318.791 213.26 320.279 212.468C321.767 211.676 323.555 211.28 325.643 211.28C327.347 211.28 328.823 211.52 330.071 212C331.319 212.48 332.339 213.092 333.131 213.836C333.947 214.556 334.547 215.312 334.931 216.104C335.339 216.896 335.555 217.592 335.579 218.192C335.603 218.408 335.543 218.588 335.399 218.732C335.255 218.852 335.063 218.912 334.823 218.912H332.699C332.459 218.912 332.279 218.864 332.159 218.768C332.063 218.672 331.967 218.504 331.871 218.264C331.655 217.64 331.295 217.028 330.791 216.428C330.311 215.828 329.651 215.336 328.811 214.952C327.995 214.544 326.939 214.34 325.643 214.34C323.747 214.34 322.211 214.856 321.035 215.888C319.883 216.92 319.259 218.624 319.163 221C319.091 223.136 319.091 225.272 319.163 227.408C319.259 229.808 319.895 231.536 321.071 232.592C322.247 233.624 323.783 234.14 325.679 234.14C326.951 234.14 328.079 233.912 329.063 233.456C330.071 232.976 330.863 232.244 331.439 231.26C332.015 230.276 332.303 229.028 332.303 227.516V226.004H326.903C326.663 226.004 326.459 225.932 326.291 225.788C326.147 225.62 326.075 225.404 326.075 225.14V223.988C326.075 223.724 326.147 223.52 326.291 223.376C326.459 223.208 326.663 223.124 326.903 223.124H335.039C335.303 223.124 335.507 223.208 335.651 223.376C335.795 223.52 335.867 223.724 335.867 223.988V227.444C335.867 229.412 335.459 231.128 334.643 232.592C333.851 234.056 332.687 235.196 331.151 236.012C329.615 236.804 327.779 237.2 325.643 237.2ZM341.831 236.84C341.567 236.84 341.363 236.768 341.219 236.624C341.075 236.456 341.003 236.252 341.003 236.012V212.504C341.003 212.24 341.075 212.036 341.219 211.892C341.363 211.724 341.567 211.64 341.831 211.64H356.699C356.963 211.64 357.167 211.724 357.311 211.892C357.455 212.036 357.527 212.24 357.527 212.504V213.872C357.527 214.136 357.455 214.34 357.311 214.484C357.167 214.628 356.963 214.7 356.699 214.7H344.459V222.584H355.907C356.171 222.584 356.375 222.668 356.519 222.836C356.663 222.98 356.735 223.184 356.735 223.448V224.78C356.735 225.02 356.663 225.224 356.519 225.392C356.375 225.536 356.171 225.608 355.907 225.608H344.459V233.78H356.987C357.251 233.78 357.455 233.852 357.599 233.996C357.743 234.14 357.815 234.344 357.815 234.608V236.012C357.815 236.252 357.743 236.456 357.599 236.624C357.455 236.768 357.251 236.84 356.987 236.84H341.831ZM363.663 236.84C363.423 236.84 363.219 236.768 363.051 236.624C362.907 236.456 362.835 236.252 362.835 236.012V212.504C362.835 212.24 362.907 212.036 363.051 211.892C363.219 211.724 363.423 211.64 363.663 211.64H365.463C365.751 211.64 365.967 211.712 366.111 211.856C366.255 212 366.339 212.12 366.363 212.216L373.995 226.76L381.663 212.216C381.711 212.12 381.795 212 381.915 211.856C382.059 211.712 382.275 211.64 382.563 211.64H384.327C384.591 211.64 384.795 211.724 384.939 211.892C385.107 212.036 385.191 212.24 385.191 212.504V236.012C385.191 236.252 385.107 236.456 384.939 236.624C384.795 236.768 384.591 236.84 384.327 236.84H382.563C382.323 236.84 382.119 236.768 381.951 236.624C381.807 236.456 381.735 236.252 381.735 236.012V218.3L375.723 230.036C375.627 230.276 375.483 230.468 375.291 230.612C375.099 230.732 374.859 230.792 374.571 230.792H373.455C373.143 230.792 372.891 230.732 372.699 230.612C372.531 230.468 372.387 230.276 372.267 230.036L366.255 218.3V236.012C366.255 236.252 366.171 236.456 366.003 236.624C365.859 236.768 365.667 236.84 365.427 236.84H363.663Z" fill="black"/>
<defs>
<filter id="filter0_d_8_380" x="0.296875" y="0" width="685.404" height="477" filterUnits="userSpaceOnUse" color-interpolation-filters="sRGB">
<feFlood flood-opacity="0" result="BackgroundImageFix"/>
<feColorMatrix in="SourceAlpha" type="matrix" values="0 0 0 0 0 0 0 0 0 0 0 0 0 0 0 0 0 0 127 0" result="hardAlpha"/>
<feOffset dx="4" dy="4"/>
<feGaussianBlur stdDeviation="2"/>
<feComposite in2="hardAlpha" operator="out"/>
<feColorMatrix type="matrix" values="0 0 0 0 0 0 0 0 0 0 0 0 0 0 0 0 0 0 0.5 0"/>
<feBlend mode="normal" in2="BackgroundImageFix" result="effect1_dropShadow_8_380"/>
<feBlend mode="normal" in="SourceGraphic" in2="effect1_dropShadow_8_380" result="shape"/>
</filter>
</defs>
</svg>
